<svg xmlns="http://www.w3.org/2000/svg" version="1.1" xmlns:xlink="http://www.w3.org/1999/xlink" xmlns:svgjs="http://svgjs.dev/svgjs" width="2000" height="1500" viewBox="0 0 2000 1500"><rect width="2000" height="1500" fill="#0c0a0f"></rect><g transform="matrix(0.75,0,0,0.75,249.67638483964993,0.05154664723022506)"><svg viewBox="0 0 343 343" data-background-color="#0c0a0f" preserveAspectRatio="xMidYMid meet" height="1999" width="2000" xmlns="http://www.w3.org/2000/svg" xmlns:xlink="http://www.w3.org/1999/xlink"><g id="tight-bounds" transform="matrix(1,0,0,1,0.0740000000000407,0.07400000000001228)"><svg viewBox="0 0 342.85155851775386 342.85155851775386" height="342.85155851775386" width="342.85155851775386"><g><svg></svg></g><g><svg viewBox="0 0 342.85155851775386 342.85155851775386" height="342.85155851775386" width="342.85155851775386"><g><path d="M0 171.426c0-94.676 76.75-171.426 171.426-171.426 94.676 0 171.426 76.75 171.426 171.426 0 94.676-76.75 171.426-171.426 171.426-94.676 0-171.426-76.75-171.426-171.426zM171.426 339.122c92.616 0 167.696-75.08 167.696-167.696 0-92.616-75.08-167.696-167.696-167.696-92.616 0-167.696 75.08-167.696 167.696 0 92.616 75.08 167.696 167.696 167.696z" data-fill-palette-color="tertiary" fill="#0c0a0f" stroke="transparent"></path><ellipse rx="164.56874808852186" ry="164.56874808852186" cx="171.42577925887693" cy="171.42577925887693" fill="#0c0a0f" stroke="transparent" stroke-width="0" fill-opacity="1" data-fill-palette-color="tertiary"></ellipse></g><g transform="matrix(1,0,0,1,64.84655864529837,117.28234555006182)"><svg viewBox="0 0 213.1584412271571 108.28686741763022" height="108.28686741763022" width="213.1584412271571"><g><svg viewBox="0 0 213.1584412271571 108.28686741763022" height="108.28686741763022" width="213.1584412271571"><g><svg viewBox="0 0 213.1584412271571 108.28686741763022" height="108.28686741763022" width="213.1584412271571"><g transform="matrix(1,0,0,1,0,66.92562831776061)"><svg viewBox="0 0 213.1584412271571 41.36123909986961" height="41.36123909986961" width="213.1584412271571"><g id="textblocktransform"><svg viewBox="0 0 213.1584412271571 41.36123909986961" height="41.36123909986961" width="213.1584412271571" id="textblock"><g><svg viewBox="0 0 213.1584412271571 41.36123909986961" height="41.36123909986961" width="213.1584412271571"><g transform="matrix(1,0,0,1,0,0)"><svg width="213.1584412271571" viewBox="2.5 -36.65 223.13 43.3" height="41.36123909986961" data-palette-color="#ffffff"><path d="M7 6.65L6.3 6.65Q5.75 6.65 5 6.6 4.25 6.55 3.8 6.3L3.8 6.3Q3.6 6.15 3.05 5.83 2.5 5.5 2.5 5.2L2.5 5.2Q2.5 4.85 2.78 4.88 3.05 4.9 3.05 4.5L3.05 4.5Q3.05 4.1 2.9 3.7 2.75 3.3 2.75 2.9L2.75 2.9Q2.75 2.45 3 1.68 3.25 0.9 3.8 0.9L3.8 0.9Q3.95 0.9 3.95 1.05L3.95 1.05Q3.95 1.45 3.68 2 3.4 2.55 3.4 2.9L3.4 2.9Q3.4 3.6 3.98 4.25 4.55 4.9 5.38 5.33 6.2 5.75 6.85 5.75L6.85 5.75Q7.1 5.75 7.4 5.75 7.7 5.75 7.95 5.7L7.95 5.7Q10.2 5.4 12.2 3.68 14.2 1.95 15.9-0.6 17.6-3.15 19-6.03 20.4-8.9 21.45-11.58 22.5-14.25 23.15-16.15L23.15-16.15Q23.05-16.4 22.78-17.07 22.5-17.75 22.5-17.95L22.5-17.95Q22.5-18.5 23.13-18.75 23.75-19 24.15-19.05L24.15-19.05Q25-21.6 25.78-24.15 26.55-26.7 27.4-29.2L27.4-29.2Q27.65-30 27.95-30.48 28.25-30.95 28.9-31.45L28.9-31.45Q29.8-32.15 31-32.48 32.2-32.8 33.3-32.8L33.3-32.8Q33.4-32.8 33.63-32.75 33.85-32.7 33.85-32.55L33.85-32.55Q33.85-32.35 33.5-32.27 33.15-32.2 33.05-32.2L33.05-32.2Q32.35-32.2 31.48-30.9 30.6-29.6 29.73-27.63 28.85-25.65 28.08-23.55 27.3-21.45 26.75-19.8 26.2-18.15 26-17.55L26-17.55Q26.25-16.8 26.58-16.05 26.9-15.3 27.25-14.6L27.25-14.6Q27.35-14.7 27.53-14.85 27.7-15 27.85-15L27.85-15Q29.75-15 31.88-15.45 34-15.9 36.05-16.7 38.1-17.5 39.65-18.5L39.65-18.5Q40.85-19.25 42.43-20.45 44-21.65 45.15-23.13 46.3-24.6 46.3-26.2L46.3-26.2Q46.3-27.85 45.08-29.03 43.85-30.2 42.05-31 40.25-31.8 38.43-32.27 36.6-32.75 35.35-32.95L35.35-32.95Q33.65-33.2 31.98-33.33 30.3-33.45 28.6-33.45L28.6-33.45Q26.55-33.45 24-33.18 21.45-32.9 18.8-32.27 16.15-31.65 13.8-30.55 11.45-29.45 9.75-27.78 8.05-26.1 7.45-23.75L7.45-23.75Q7.3-23.1 7.3-22.4L7.3-22.4Q7.3-21.15 7.8-20.08 8.3-19 9.55-18.55L9.55-18.55 9.7-18.55Q10.1-18.55 10.48-18.63 10.85-18.7 11.2-18.7L11.2-18.7Q11.25-18.7 11.4-18.68 11.55-18.65 11.55-18.55L11.55-18.55Q11.55-18.2 11-18.03 10.45-17.85 10.2-17.85L10.2-17.85Q9.35-17.85 8.75-18.25 8.15-18.65 7.8-18.65L7.8-18.65Q7.75-18.65 7.7-18.63 7.65-18.6 7.65-18.6L7.65-18.6Q7.55-18.5 7.5-18.35 7.45-18.2 7.25-18.2L7.25-18.2Q6.95-18.2 6.7-18.73 6.45-19.25 6.3-19.9 6.15-20.55 6.15-20.8L6.15-20.8Q6.15-21.85 6.4-23L6.4-23Q7.05-25.85 8.88-28 10.7-30.15 13.3-31.63 15.9-33.1 18.85-34 21.8-34.9 24.78-35.33 27.75-35.75 30.3-35.75L30.3-35.75Q33.95-35.75 37.45-35L37.45-35Q38.95-34.7 40.8-34.05 42.65-33.4 44.35-32.4 46.05-31.4 47.18-29.98 48.3-28.55 48.3-26.7L48.3-26.7Q48.3-24.65 46.78-22.73 45.25-20.8 42.83-19.13 40.4-17.45 37.63-16.13 34.85-14.8 32.3-13.98 29.75-13.15 28.05-12.95L28.05-12.95Q28.6-11.9 29.55-10.33 30.5-8.75 31.73-7.03 32.95-5.3 34.35-3.8 35.75-2.3 37.2-1.35 38.65-0.4 40-0.4L40-0.4Q41.2-0.4 41.95-1.1 42.7-1.8 43.18-2.83 43.65-3.85 43.9-4.8L43.9-4.8Q44-5.2 44.08-5.65 44.15-6.1 44.25-6.45L44.25-6.45 44.35-6.45Q44.45-6.45 44.45-6.2L44.45-6.2Q44.5-6 44.5-5.7L44.5-5.7Q44.5-5.2 44.35-4.65L44.35-4.65Q44.2-3.9 44.15-3.15 44.1-2.4 43.85-1.7L43.85-1.7Q43.3-0.15 42.18 0.78 41.05 1.7 39.35 1.7L39.35 1.7Q37.35 1.7 35.5 0.65 33.65-0.4 31.98-2.08 30.3-3.75 28.88-5.78 27.45-7.8 26.33-9.78 25.2-11.75 24.45-13.3L24.45-13.3Q23.6-10.85 22.63-8.38 21.65-5.9 20.35-3.6L20.35-3.6Q18.75-0.8 17.05 1.55 15.35 3.9 13 5.28 10.65 6.65 7 6.65L7 6.65ZM48.15 0.2L48.15 0.2Q45.25 0.2 45.25-2.75L45.25-2.75Q45.25-4.95 46.15-7.48 47.05-10 48.5-12.33 49.95-14.65 51.55-16.1L51.55-16.1Q53.45-17.75 56-17.75L56-17.75Q56.6-17.75 57.47-17.6 58.35-17.45 59-17.03 59.65-16.6 59.65-15.8L59.65-15.8Q59.65-14.65 58.8-13.18 57.95-11.7 57.25-10.8L57.25-10.8Q57.5-10.75 57.87-10.65 58.25-10.55 58.25-10.25L58.25-10.25Q58.25-10.1 58-10.1L58-10.1Q57.55-10.1 57.1-10.2 56.65-10.3 56.2-10.3L56.2-10.3Q54.5-10.3 52.72-9.8 50.95-9.3 49.35-8.75L49.35-8.75Q48.85-7.55 48.47-6.1 48.1-4.65 48.1-3.35L48.1-3.35Q48.1-2.4 48.47-1.65 48.85-0.9 49.95-0.9L49.95-0.9Q51.3-0.9 52.72-1.68 54.15-2.45 55.47-3.68 56.8-4.9 57.85-6.25 58.9-7.6 59.5-8.7L59.5-8.7Q59.55-8.65 59.55-8.5L59.55-8.5Q59.55-8.05 59-7.28 58.45-6.5 57.87-5.75 57.3-5 57.2-4.65L57.2-4.65Q57.15-4.3 57.02-4.05 56.9-3.8 56.75-3.5L56.75-3.5Q55.9-2.65 54.32-1.78 52.75-0.9 51.07-0.35 49.4 0.2 48.15 0.2ZM50.05-10.35L50.05-10.35Q51.35-10.6 52.62-10.75 53.9-10.9 55.2-10.9L55.2-10.9Q55.6-10.9 56-10.9 56.4-10.9 56.8-10.85L56.8-10.85Q57.2-11.7 57.47-12.7 57.75-13.7 57.75-14.65L57.75-14.65Q57.75-15.4 57.45-16.18 57.15-16.95 56.15-16.95L56.15-16.95Q55.2-16.95 54.22-16.15 53.25-15.35 52.65-14.7L52.65-14.7Q51.85-13.75 51.22-12.63 50.6-11.5 50.05-10.35ZM58.95 0.4L58.95 0.4Q58 0.4 56.85 0.05 55.7-0.3 55.15-1.25L55.15-1.25 55.15-1.35Q55.15-1.6 55.77-2.13 56.4-2.65 57.1-3.18 57.8-3.7 58-3.95L58-3.95 58.35-4.05 58.45-3.85Q58.1-3.55 58.1-3.2L58.1-3.2Q58.1-2.45 58.67-1.95 59.25-1.45 60.02-1.2 60.8-0.95 61.4-0.95L61.4-0.95Q62.1-0.95 63.17-1.35 64.25-1.75 65.1-2.45 65.95-3.15 65.95-4L65.95-4Q65.95-5.3 65.15-6.25 64.35-7.2 63.3-8.05 62.25-8.9 61.45-9.85 60.65-10.8 60.65-12.05L60.65-12.05Q60.65-13.5 61.52-14.68 62.4-15.85 63.77-16.68 65.15-17.5 66.65-17.93 68.15-18.35 69.4-18.35L69.4-18.35Q69.6-18.35 70.3-18.28 71-18.2 71.62-18.03 72.25-17.85 72.25-17.55L72.25-17.55Q72.25-17.45 72.2-17.45L72.2-17.45 72.1-17.45 71.7-17.55Q71.85-17.2 71.85-16.7L71.85-16.7Q71.85-16.25 71.65-15.55 71.45-14.85 71.2-14.45L71.2-14.45Q71.15-14.35 70.7-13.8 70.25-13.25 69.8-12.75 69.35-12.25 69.25-12.25L69.25-12.25 69.2-12.35Q69.3-12.6 69.85-13.23 70.4-13.85 70.4-14.85L70.4-14.85Q70.4-15.9 69.45-16.57 68.5-17.25 67.5-17.25L67.5-17.25Q66.55-17.25 65.52-16.65 64.5-16.05 63.82-15.1 63.15-14.15 63.15-13.15L63.15-13.15Q63.15-12.25 64.02-11.28 64.9-10.3 66.02-9.33 67.15-8.35 68.02-7.4 68.9-6.45 68.9-5.6L68.9-5.6 68.9-5.45Q68.9-4.2 67.8-3.13 66.7-2.05 65.05-1.25 63.4-0.45 61.72-0.03 60.05 0.4 58.95 0.4ZM72.89 0.25L72.89 0.25Q71.94 0.25 71.57-0.28 71.19-0.8 71.19-2.15L71.19-2.15Q71.19-4.1 71.69-6.25 72.19-8.4 73.04-10.43 73.89-12.45 74.94-13.95L74.94-13.95Q75.74-15.05 77.09-16 78.44-16.95 79.99-17.55 81.54-18.15 82.89-18.15L82.89-18.15Q83.34-18.15 83.99-18.03 84.64-17.9 84.99-17.6L84.99-17.6Q85.24-17.4 85.32-17.05 85.39-16.7 85.39-16.4L85.39-16.4Q85.39-15.1 84.97-13.38 84.54-11.65 83.84-9.85 83.14-8.05 82.34-6.48 81.54-4.9 80.74-3.85L80.74-3.85Q80.29-3.25 79.29-2.53 78.29-1.8 77.12-1.18 75.94-0.55 74.79-0.15 73.64 0.25 72.89 0.25ZM74.24-1.15L74.24-1.15Q76.59-1.65 78.04-3.4L78.04-3.4Q79.19-4.75 80.19-6.95 81.19-9.15 81.82-11.5 82.44-13.85 82.44-15.6L82.44-15.6Q82.44-15.75 82.42-16.1 82.39-16.45 82.24-16.5L82.24-16.5Q81.64-16.8 80.89-16.8L80.89-16.8Q80.39-16.8 79.59-16.48 78.79-16.15 78.39-15.75L78.39-15.75Q78.14-15.5 77.92-15.08 77.69-14.65 77.49-14.35L77.49-14.35Q76.54-12.85 75.67-10.85 74.79-8.85 74.24-6.75 73.69-4.65 73.69-2.8L73.69-2.8Q73.69-2.2 73.82-1.73 73.94-1.25 74.24-1.15ZM94.84 0.15L94.84 0.15Q93.94 0.15 93.64-0.38 93.34-0.9 93.34-1.7L93.34-1.7Q93.34-3 93.77-4.63 94.19-6.25 94.54-7.5L94.54-7.5Q93.24-5.5 91.54-3.55 89.84-1.6 87.64-0.45L87.64-0.45Q87.29-0.25 86.84-0.08 86.39 0.1 85.99 0.1L85.99 0.1Q85.29 0.1 85.07-0.4 84.84-0.9 84.84-1.45L84.84-1.45 84.84-1.65Q84.84-2.45 85.14-3.28 85.44-4.1 85.69-4.85L85.69-4.85Q86.09-6 86.67-7.73 87.24-9.45 87.72-11.2 88.19-12.95 88.19-14.05L88.19-14.05Q88.19-14.5 88.07-14.9 87.94-15.3 87.39-15.35L87.39-15.35Q87.39-15.35 87.32-15.35 87.24-15.35 87.24-15.4L87.24-15.4Q87.24-15.55 87.77-15.73 88.29-15.9 89.04-16.1 89.79-16.3 90.44-16.43 91.09-16.55 91.29-16.55L91.29-16.55Q91.39-16.55 91.67-16.5 91.94-16.45 91.94-16.2L91.94-16.2Q91.94-16.1 91.89-16.05L91.89-16.05Q91.39-14.85 90.74-13.2 90.09-11.55 89.47-9.73 88.84-7.9 88.44-6.18 88.04-4.45 88.04-3.1L88.04-3.1Q88.04-2.85 88.14-2.6 88.24-2.35 88.54-2.35L88.54-2.35Q89.09-2.35 89.92-3 90.74-3.65 91.09-4L91.09-4Q92.94-5.95 94.44-8.75 95.94-11.55 96.74-14.1L96.74-14.1Q96.99-14.85 97.24-15.18 97.49-15.5 98.14-16L98.14-16Q98.94-16.55 99.92-17 100.89-17.45 101.89-17.45L101.89-17.45Q101.99-17.45 102.14-17.32 102.29-17.2 102.29-17.05L102.29-17.05Q102.29-16.95 102.17-16.93 102.04-16.9 101.94-16.9L101.94-16.9Q101.29-16.9 100.59-16.1 99.89-15.3 99.24-14.05 98.59-12.8 98.07-11.45 97.54-10.1 97.17-8.97 96.79-7.85 96.64-7.3L96.64-7.3Q96.44-6.35 96.22-5.4 95.99-4.45 95.99-3.45L95.99-3.45Q95.99-3.05 96.12-2.43 96.24-1.8 96.84-1.8L96.84-1.8Q97.19-1.8 97.54-2.05L97.54-2.05Q98.64-2.7 99.64-3.83 100.64-4.95 101.49-6.28 102.34-7.6 102.84-8.7L102.84-8.7Q102.94-8.65 102.94-8.5L102.94-8.5Q102.94-8.1 102.42-7.23 101.89-6.35 101.37-5.58 100.84-4.8 100.79-4.65L100.79-4.65Q100.74-4.3 100.67-4.08 100.59-3.85 100.44-3.5L100.44-3.5Q99.84-2.85 98.87-2 97.89-1.15 96.84-0.5 95.79 0.15 94.84 0.15ZM99.44 0.65L99.44 0.65Q99.34 0.65 99.34 0.6L99.34 0.6Q99.34 0.4 99.51 0.23 99.69 0.05 99.79-0.1L99.79-0.1Q100.24-0.85 100.81-2.68 101.39-4.5 101.96-6.7 102.54-8.9 103.01-10.83 103.49-12.75 103.69-13.75L103.69-13.75Q103.79-14.15 103.91-14.8 104.04-15.45 104.24-16.1 104.44-16.75 104.69-16.95L104.69-16.95Q105.14-17.35 106.04-17.65 106.94-17.95 107.86-18.13 108.79-18.3 109.39-18.3L109.39-18.3Q109.49-18.3 109.64-18.2 109.79-18.1 109.84-18L109.84-18 109.89-17.85Q109.84-17.7 109.74-17.73 109.64-17.75 109.54-17.75L109.54-17.75Q108.59-17.75 107.79-16.68 106.99-15.6 106.39-14.05 105.79-12.5 105.36-11.08 104.94-9.65 104.79-8.95L104.79-8.95Q105.29-10.1 106.11-11.58 106.94-13.05 108.04-14.43 109.14-15.8 110.44-16.73 111.74-17.65 113.19-17.65L113.19-17.65Q113.39-17.65 113.86-17.57 114.34-17.5 114.76-17.32 115.19-17.15 115.19-16.9L115.19-16.9 115.14-16.85 115.09-16.85 114.79-16.95Q114.94-16.6 114.99-16.25 115.04-15.9 115.04-15.55L115.04-15.55Q115.04-15.25 114.86-14.25 114.69-13.25 114.41-12.38 114.14-11.5 113.84-11.5L113.84-11.5Q113.64-11.5 113.64-11.65L113.64-11.65Q113.64-11.9 113.81-12.48 113.99-13.05 113.99-13.55L113.99-13.55Q113.99-14.45 113.54-15 113.09-15.55 112.19-15.55L112.19-15.55Q110.69-15.55 109.29-14.28 107.89-13 106.74-11.13 105.59-9.25 104.79-7.35 103.99-5.45 103.69-4.25L103.69-4.25Q103.49-3.6 103.34-2.58 103.19-1.55 102.59-1.15L102.59-1.15Q102.44-1.1 101.66-0.65 100.89-0.2 100.16 0.23 99.44 0.65 99.44 0.65ZM114.79 0L114.79 0Q114.24 0 113.86-0.5 113.49-1 113.31-1.65 113.14-2.3 113.14-2.75L113.14-2.75Q113.14-4.95 114.06-7.48 114.99-10 116.44-12.33 117.89-14.65 119.44-16.1L119.44-16.1Q120.34-16.95 121.51-17.35 122.69-17.75 123.89-17.75L123.89-17.75Q124.69-17.75 125.61-17.55 126.54-17.35 127.19-16.85L127.19-16.85Q127.19-16.8 127.21-16.78 127.24-16.75 127.24-16.7L127.24-16.7Q127.24-16.6 127.19-16.6L127.19-16.6 127.14-16.6 126.79-16.7Q126.94-16.25 126.94-15.8L126.94-15.8Q126.94-15.35 126.69-14.48 126.44-13.6 126.09-12.8 125.74-12 125.34-11.75L125.34-11.75Q125.34-11.75 125.24-11.75L125.24-11.75Q125.09-11.75 125.09-12L125.09-12Q125.09-12.1 125.19-12.2 125.29-12.3 125.34-12.4L125.34-12.4Q125.59-12.95 125.71-13.5 125.84-14.05 125.84-14.6L125.84-14.6Q125.84-15.45 125.44-16.2 125.04-16.95 124.04-16.95L124.04-16.95Q123.14-16.95 122.14-16.15 121.14-15.35 120.54-14.7L120.54-14.7Q119.54-13.55 118.51-11.58 117.49-9.6 116.79-7.5 116.09-5.4 116.09-3.85L116.09-3.85Q116.09-3.15 116.36-2.53 116.64-1.9 117.49-1.9L117.49-1.9Q118.74-1.9 120.14-2.78 121.54-3.65 122.94-4.93 124.34-6.2 125.51-7.48 126.69-8.75 127.46-9.63 128.24-10.5 128.34-10.5L128.34-10.5Q128.49-10.5 128.49-10.25L128.49-10.25Q128.49-10.15 128.46-10.05 128.44-9.95 128.39-9.85L128.39-9.85Q127.14-8.2 125.71-6.48 124.29-4.75 122.61-3.28 120.94-1.8 118.99-0.9 117.04 0 114.79 0ZM128.78 0.2L128.78 0.2Q125.88 0.2 125.88-2.75L125.88-2.75Q125.88-4.95 126.78-7.48 127.68-10 129.13-12.33 130.58-14.65 132.18-16.1L132.18-16.1Q134.08-17.75 136.63-17.75L136.63-17.75Q137.23-17.75 138.11-17.6 138.98-17.45 139.63-17.03 140.28-16.6 140.28-15.8L140.28-15.8Q140.28-14.65 139.43-13.18 138.58-11.7 137.88-10.8L137.88-10.8Q138.13-10.75 138.51-10.65 138.88-10.55 138.88-10.25L138.88-10.25Q138.88-10.1 138.63-10.1L138.63-10.1Q138.18-10.1 137.73-10.2 137.28-10.3 136.83-10.3L136.83-10.3Q135.13-10.3 133.36-9.8 131.58-9.3 129.98-8.75L129.98-8.75Q129.48-7.55 129.11-6.1 128.73-4.65 128.73-3.35L128.73-3.35Q128.73-2.4 129.11-1.65 129.48-0.9 130.58-0.9L130.58-0.9Q131.93-0.9 133.36-1.68 134.78-2.45 136.11-3.68 137.43-4.9 138.48-6.25 139.53-7.6 140.13-8.7L140.13-8.7Q140.18-8.65 140.18-8.5L140.18-8.5Q140.18-8.05 139.63-7.28 139.08-6.5 138.51-5.75 137.93-5 137.83-4.65L137.83-4.65Q137.78-4.3 137.66-4.05 137.53-3.8 137.38-3.5L137.38-3.5Q136.53-2.65 134.96-1.78 133.38-0.9 131.71-0.35 130.03 0.2 128.78 0.2ZM130.68-10.35L130.68-10.35Q131.98-10.6 133.26-10.75 134.53-10.9 135.83-10.9L135.83-10.9Q136.23-10.9 136.63-10.9 137.03-10.9 137.43-10.85L137.43-10.85Q137.83-11.7 138.11-12.7 138.38-13.7 138.38-14.65L138.38-14.65Q138.38-15.4 138.08-16.18 137.78-16.95 136.78-16.95L136.78-16.95Q135.83-16.95 134.86-16.15 133.88-15.35 133.28-14.7L133.28-14.7Q132.48-13.75 131.86-12.63 131.23-11.5 130.68-10.35ZM146.03 5L146.03 5Q142.93 5 140.73 2.8L140.73 2.8Q140.53 2.6 140.31 2.33 140.08 2.05 140.08 1.75L140.08 1.75Q140.08 1.35 140.36 1.35 140.63 1.35 140.73 1.25L140.73 1.25Q141.03 1 141.03 0.68 141.03 0.35 141.08 0L141.08 0Q141.18-0.65 141.76-1.45 142.33-2.25 143.08-2.25L143.08-2.25Q143.18-2.25 143.18-2.15L143.18-2.15Q143.18-1.95 142.83-1.63 142.48-1.3 142.11-0.8 141.73-0.3 141.73 0.35L141.73 0.35Q141.73 1.45 142.78 2.13 143.83 2.8 145.16 3.1 146.48 3.4 147.33 3.4L147.33 3.4Q149.63 3.4 151.53 2.33 153.43 1.25 155.03-0.5 156.63-2.25 157.88-4.38 159.13-6.5 160.11-8.63 161.08-10.75 161.73-12.55L161.73-12.55 159.13-12.55Q158.93-12.55 158.36-12.68 157.78-12.8 157.28-13 156.78-13.2 156.78-13.45L156.78-13.45Q156.78-13.75 157.56-13.93 158.33-14.1 159.41-14.18 160.48-14.25 161.43-14.3 162.38-14.35 162.68-14.35L162.68-14.35Q164.43-18.5 166.08-22.73 167.73-26.95 169.43-31.1L169.43-31.1Q165.78-32.1 162.18-32.95 158.58-33.8 154.73-33.8L154.73-33.8Q152.93-33.8 150.86-33.48 148.78-33.15 146.98-32.27 145.18-31.4 144.08-29.75L144.08-29.75Q143.68-29.1 143.43-28.38 143.18-27.65 143.18-26.85L143.18-26.85Q143.18-24.75 144.43-23.33 145.68-21.9 147.53-21.2 149.38-20.5 151.23-20.5L151.23-20.5Q151.98-20.5 152.63-20.83 153.28-21.15 153.78-21.65L153.78-21.65Q153.93-21.6 153.93-21.45L153.93-21.45Q153.93-21.25 153.88-21.15L153.88-21.15Q153.23-20.2 152.13-19.88 151.03-19.55 149.93-19.55L149.93-19.55Q147.83-19.55 145.86-20.35 143.88-21.15 142.61-22.75 141.33-24.35 141.33-26.7L141.33-26.7Q141.33-27.7 141.61-28.63 141.88-29.55 142.38-30.4L142.38-30.4Q143.58-32.4 145.58-33.52 147.58-34.65 149.91-35.1 152.23-35.55 154.38-35.55L154.38-35.55Q158.38-35.55 162.28-34.55 166.18-33.55 170.03-32.45L170.03-32.45Q170.43-33.3 171.23-34.1 172.03-34.9 173.08-34.9L173.08-34.9Q173.63-34.9 174.11-34.58 174.58-34.25 174.63-33.65L174.63-33.65Q174.23-33.45 173.73-32.75 173.23-32.05 172.98-31.65L172.98-31.65Q173.58-31.5 174.26-31.33 174.93-31.15 175.58-31.15L175.58-31.15Q176.18-31.15 176.78-31.53 177.38-31.9 177.48-31.9L177.48-31.9Q177.58-31.9 177.58-31.8L177.58-31.8Q177.58-31.15 176.71-30.55 175.83-29.95 175.28-29.95L175.28-29.95Q174.53-29.95 173.76-30.08 172.98-30.2 172.23-30.4L172.23-30.4Q170.08-26.6 168.23-22.53 166.38-18.45 164.88-14.35L164.88-14.35 172.18-14.35Q174.03-14.35 175.86-14.35 177.68-14.35 179.48-14.3L179.48-14.3Q180.08-15.75 180.98-17.95 181.88-20.15 183.06-22.68 184.23-25.2 185.63-27.65 187.03-30.1 188.63-32.15 190.23-34.2 192.01-35.43 193.78-36.65 195.63-36.65L195.63-36.65Q196.18-36.65 196.86-36.45 197.53-36.25 197.83-35.75L197.83-35.75Q198.03-35.55 198.03-35.3L198.03-35.3Q198.03-35.1 197.93-35.1L197.93-35.1Q197.53-35.25 197.26-35.65 196.98-36.05 196.33-36.05L196.33-36.05Q195.33-36.05 194.13-35.27 192.93-34.5 191.91-33.45 190.88-32.4 190.28-31.6L190.28-31.6Q189.18-30.05 188.23-28.33 187.28-26.6 186.43-24.85L186.43-24.85Q185.18-22.25 184.01-19.6 182.83-16.95 181.73-14.3L181.73-14.3 185.93-14.15Q186.33-14.15 187.26-14.1 188.18-14.05 188.53-13.9L188.53-13.9Q188.68-13.9 188.68-13.75L188.68-13.75Q188.68-13.7 188.56-13.65 188.43-13.6 188.43-13.6L188.43-13.6Q187.63-13.35 186.71-13.23 185.78-13.1 184.93-13.05L184.93-13.05Q183.98-13 183.06-12.98 182.13-12.95 181.18-12.9L181.18-12.9Q180.63-11.5 179.88-9.43 179.13-7.35 178.58-5.28 178.03-3.2 178.03-1.7L178.03-1.7Q178.03-1.35 178.16-0.78 178.28-0.2 178.83-0.2L178.83-0.2Q179.08-0.2 179.28-0.3 179.48-0.4 179.68-0.5L179.68-0.5Q180.83-1.15 181.91-2.27 182.98-3.4 183.88-4.73 184.78-6.05 185.38-7.15L185.38-7.15Q185.43-7.1 185.43-7L185.43-7Q185.43-6.6 184.86-5.75 184.28-4.9 183.71-4.1 183.13-3.3 183.08-3.1L183.08-3.1Q183.03-2.75 182.93-2.53 182.83-2.3 182.63-1.95L182.63-1.95Q182.03-1.35 181.13-0.55 180.23 0.25 179.23 0.85 178.23 1.45 177.28 1.45L177.28 1.45Q176.18 1.45 175.86 0.78 175.53 0.1 175.53-0.8L175.53-0.8Q175.53-2.45 176.13-4.7 176.73-6.95 177.53-9.15 178.33-11.35 178.93-12.85L178.93-12.85 173.53-12.85Q171.18-12.85 168.83-12.8 166.48-12.75 164.13-12.6L164.13-12.6Q163.28-10.65 161.93-8.3 160.58-5.95 158.83-3.63 157.08-1.3 155.03 0.68 152.98 2.65 150.71 3.83 148.43 5 146.03 5ZM196.83 0.15L196.83 0.15Q195.93 0.15 195.63-0.38 195.33-0.9 195.33-1.7L195.33-1.7Q195.33-3 195.75-4.63 196.18-6.25 196.53-7.5L196.53-7.5Q195.23-5.5 193.53-3.55 191.83-1.6 189.63-0.45L189.63-0.45Q189.28-0.25 188.83-0.08 188.38 0.1 187.98 0.1L187.98 0.1Q187.28 0.1 187.05-0.4 186.83-0.9 186.83-1.45L186.83-1.45 186.83-1.65Q186.83-2.45 187.13-3.28 187.43-4.1 187.68-4.85L187.68-4.85Q188.08-6 188.65-7.73 189.23-9.45 189.7-11.2 190.18-12.95 190.18-14.05L190.18-14.05Q190.18-14.5 190.05-14.9 189.93-15.3 189.38-15.35L189.38-15.35Q189.38-15.35 189.3-15.35 189.23-15.35 189.23-15.4L189.23-15.4Q189.23-15.55 189.75-15.73 190.28-15.9 191.03-16.1 191.78-16.3 192.43-16.43 193.08-16.55 193.28-16.55L193.28-16.55Q193.38-16.55 193.65-16.5 193.93-16.45 193.93-16.2L193.93-16.2Q193.93-16.1 193.88-16.05L193.88-16.05Q193.38-14.85 192.73-13.2 192.08-11.55 191.45-9.73 190.83-7.9 190.43-6.18 190.03-4.45 190.03-3.1L190.03-3.1Q190.03-2.85 190.13-2.6 190.23-2.35 190.53-2.35L190.53-2.35Q191.08-2.35 191.9-3 192.73-3.65 193.08-4L193.08-4Q194.93-5.95 196.43-8.75 197.93-11.55 198.73-14.1L198.73-14.1Q198.98-14.85 199.23-15.18 199.48-15.5 200.13-16L200.13-16Q200.93-16.55 201.9-17 202.88-17.45 203.88-17.45L203.88-17.45Q203.98-17.45 204.13-17.32 204.28-17.2 204.28-17.05L204.28-17.05Q204.28-16.95 204.15-16.93 204.03-16.9 203.93-16.9L203.93-16.9Q203.28-16.9 202.58-16.1 201.88-15.3 201.23-14.05 200.58-12.8 200.05-11.45 199.53-10.1 199.15-8.97 198.78-7.85 198.63-7.3L198.63-7.3Q198.43-6.35 198.2-5.4 197.98-4.45 197.98-3.45L197.98-3.45Q197.98-3.05 198.1-2.43 198.23-1.8 198.83-1.8L198.83-1.8Q199.18-1.8 199.53-2.05L199.53-2.05Q200.63-2.7 201.63-3.83 202.63-4.95 203.48-6.28 204.33-7.6 204.83-8.7L204.83-8.7Q204.93-8.65 204.93-8.5L204.93-8.5Q204.93-8.1 204.4-7.23 203.88-6.35 203.35-5.58 202.83-4.8 202.78-4.65L202.78-4.65Q202.73-4.3 202.65-4.08 202.58-3.85 202.43-3.5L202.43-3.5Q201.83-2.85 200.85-2 199.88-1.15 198.83-0.5 197.78 0.15 196.83 0.15ZM206.08 0.6L206.08 0.6Q205.33 0.6 204.55 0.5 203.78 0.4 203.23 0 202.68-0.4 202.68-1.35L202.68-1.35Q202.68-1.85 202.78-2.33 202.88-2.8 202.98-3.25L202.98-3.25Q203.58-5.6 204.7-9.58 205.83-13.55 207.43-17.8L207.43-17.8Q208.08-19.55 209-21.75 209.93-23.95 211.13-26.2 212.33-28.45 213.88-30.35 215.43-32.25 217.3-33.4 219.18-34.55 221.48-34.55L221.48-34.55Q223.98-34.55 224.8-33.65 225.63-32.75 225.63-31.8L225.63-31.8Q225.63-31.4 225.35-31.3 225.08-31.2 225.08-31.55L225.08-31.55Q225.08-32.6 224.25-33.27 223.43-33.95 222.23-33.95L222.23-33.95Q221.18-33.95 219.95-33.18 218.73-32.4 217.68-31.38 216.63-30.35 216.03-29.55L216.03-29.55Q214.38-27.3 212.9-24.43 211.43-21.55 210.23-18.6 209.03-15.65 208.15-13.15 207.28-10.65 206.83-9.15L206.83-9.15 206.83-8.95Q206.83-8.85 206.88-8.8L206.88-8.8 207.03-8.95Q207.63-9.75 208.75-11.15 209.88-12.55 211.2-14 212.53-15.45 213.88-16.45 215.23-17.45 216.28-17.45L216.28-17.45Q217.08-17.45 217.3-16.82 217.53-16.2 217.53-15.55L217.53-15.55Q217.53-13.25 216.63-10.5 215.73-7.75 214.28-5.28 212.83-2.8 211.13-1.25L211.13-1.25Q210.03-0.2 208.83 0.2 207.63 0.6 206.08 0.6ZM206.53-0.4L206.53-0.4Q207.48-0.4 208.48-1.2 209.48-2 210.03-2.65L210.03-2.65Q210.73-3.45 211.53-4.93 212.33-6.4 213.03-8.18 213.73-9.95 214.2-11.55 214.68-13.15 214.68-14.15L214.68-14.15Q214.68-14.5 214.58-14.9 214.48-15.3 214.08-15.3L214.08-15.3Q213.58-15.3 212.75-14.63 211.93-13.95 211.05-13 210.18-12.05 209.48-11.15 208.78-10.25 208.48-9.8L208.48-9.8Q207.88-8.9 207.08-7.45 206.28-6 205.68-4.48 205.08-2.95 205.08-1.9L205.08-1.9Q205.08-0.4 206.53-0.4Z" opacity="1" transform="matrix(1,0,0,1,0,0)" fill="#ffffff" class="wordmark-text-0" data-fill-palette-color="quaternary" id="text-0"></path></svg></g></svg></g></svg></g></svg></g><g transform="matrix(1,0,0,1,82.30330959717375,0)"><svg viewBox="0 0 48.55182203280962 57.1612324360198" height="57.1612324360198" width="48.55182203280962"><g><svg xmlns="http://www.w3.org/2000/svg" xmlns:xlink="http://www.w3.org/1999/xlink" version="1.1" x="0" y="0" viewBox="34.17835050911053 34.496 54.78864949088947 64.50399999999999" enable-background="new 0 0 128 128" xml:space="preserve" height="57.1612324360198" width="48.55182203280962" class="icon-icon-0" data-fill-palette-color="quaternary" id="icon-0"><path fill="#ffffff" d="M81 99H61A1 1 0 0 1 60 98V87A1 1 0 1 1 62 87V97H80V75.914C80 75.622 80.128 75.345 80.35 75.154 84.741 71.391 86.967 66.013 86.967 59.172 86.967 53.13 84.6 47.435 80.303 43.137 76.019 38.854 70.338 36.495 64.306 36.495 58.272 36.495 52.591 38.854 48.307 43.137 44.056 47.388 41.715 53.083 41.715 59.172A1 1 0 0 1 41.534 59.746L36.882 66.376 41.19 67.21A1 1 0 0 1 42 68.191V82.847C42 84 42.671 84 42.892 84H58.676C59.351 84 59.966 83.341 59.966 82.617A1 1 0 1 1 61.966 82.617C61.966 84.451 60.46 86 58.676 86H42.892C41.162 86 40 84.733 40 82.848V69.017L34.988 68.046A1 1 0 0 1 34.359 66.491L39.717 58.854C39.798 52.351 42.339 46.278 46.893 41.724 51.554 37.063 57.738 34.496 64.306 34.496 70.872 34.496 77.055 37.063 81.717 41.724 86.392 46.4 88.967 52.597 88.967 59.173 88.967 66.444 86.623 72.228 82 76.368V98A1 1 0 0 1 81 99" data-fill-palette-color="quaternary"></path><path fill="#ffffff" d="M64 77C54.075 77 46 68.925 46 59S54.075 41 64 41 82 49.075 82 59 73.925 77 64 77M64 43C55.178 43 48 50.178 48 59S55.178 75 64 75 80 67.822 80 59 72.822 43 64 43" data-fill-palette-color="quaternary"></path><path fill="#ffffff" d="M66 71H62A1 1 0 0 1 61 70V68.534A10 10 0 0 1 59.381 67.861L58.342 68.899A1 1 0 0 1 56.928 68.899L54.1 66.071A0.997 0.997 0 0 1 54.1 64.657L55.139 63.619A10 10 0 0 1 54.466 62H53A1 1 0 0 1 52 61V57A1 1 0 0 1 53 56H54.466C54.642 55.442 54.866 54.901 55.138 54.381L54.1 53.344A1 1 0 0 1 54.1 51.929L56.928 49.1A1.03 1.03 0 0 1 58.342 49.1L59.381 50.138A10 10 0 0 1 61 49.466V48A1 1 0 0 1 62 47H66A1 1 0 0 1 67 48V49.466C67.558 49.642 68.099 49.866 68.619 50.138L69.657 49.1A1 1 0 0 1 71.071 49.1L73.899 51.928A1 1 0 0 1 73.899 53.343L72.861 54.38C73.132 54.9 73.357 55.441 73.533 55.999H75A1 1 0 0 1 76 56.999V60.999A1 1 0 0 1 75 61.999H73.534A10 10 0 0 1 72.861 63.618L73.899 64.656A1 1 0 0 1 73.899 66.07L71.071 68.898A1 1 0 0 1 69.657 68.898L68.618 67.86A10 10 0 0 1 67 68.533V70A1 1 0 0 1 66 71M63 69H65V67.77A1 1 0 0 1 65.778 66.795 8 8 0 0 0 68.251 65.768 1 1 0 0 1 69.491 65.907L70.364 66.779 71.778 65.365 70.906 64.493A1 1 0 0 1 70.766 63.253 8 8 0 0 0 71.794 60.778C71.898 60.323 72.303 60 72.77 60H74V58H72.77A1 1 0 0 1 71.795 57.223 8 8 0 0 0 70.767 54.748C70.519 54.352 70.577 53.838 70.907 53.508L71.779 52.637 70.365 51.223 69.493 52.095A1 1 0 0 1 68.254 52.234 8 8 0 0 0 65.779 51.206 1 1 0 0 1 65 50.23V49H63V50.23A1 1 0 0 1 62.222 51.205 8 8 0 0 0 59.747 52.233 1 1 0 0 1 58.508 52.093L57.636 51.221 56.222 52.635 57.094 53.506A1 1 0 0 1 57.233 54.746 7.9 7.9 0 0 0 56.206 57.22C56.102 57.677 55.697 58 55.23 58H54V60H55.23A1 1 0 0 1 56.205 60.778 8 8 0 0 0 57.232 63.252 1 1 0 0 1 57.093 64.492L56.221 65.364 57.635 66.778 58.507 65.906A1 1 0 0 1 59.746 65.766 8 8 0 0 0 62.221 66.794C62.677 66.898 63 67.303 63 67.77z" data-fill-palette-color="quaternary"></path><path fill="#ffffff" d="M64 66C60.14 66 57 62.86 57 59S60.14 52 64 52 71 55.14 71 59 67.859 66 64 66M64 54C61.243 54 59 56.243 59 59S61.243 64 64 64 69 61.757 69 59 66.757 54 64 54" data-fill-palette-color="quaternary"></path><path fill="#ffffff" d="M64 62C62.346 62 61 60.654 61 59S62.346 56 64 56 67 57.346 67 59 65.654 62 64 62M64 58C63.449 58 63 58.449 63 59S63.449 60 64 60 65 59.551 65 59 64.551 58 64 58" data-fill-palette-color="quaternary"></path></svg></g></svg></g><g></g></svg></g></svg></g></svg></g></svg></g><defs></defs></svg><rect width="342.85155851775386" height="342.85155851775386" fill="none" stroke="none" visibility="hidden"></rect></g></svg></g></svg>